# xmcd
#
# Track frame offsets: 
#        150
#        11685
#        25660
#        39352
#        49950
#        64180
#        79065
#        92885
#        104815
#        114217
#        127147
#        138860
#        152945
#        172117
#        184410
#
# Disc length: 2654 seconds
#
# Revision: 0
# Processed by: cddbd v1.4PL0 Copyright (c) Steve Scherf et al.
# Submitted via: ExactAudioCopy v0.90b4
#
DISCID=d10a5c0f
DTITLE=George Jones - Love Songs
DYEAR=1900
DGENRE=Country
TTITLE0=A Picture Of Me (Without You)
TTITLE1=You've Still Got A Place In My Heart
TTITLE2=I'll Take You To My World
TTITLE3=Love Lives Again
TTITLE4=(What Love Can Do) The Second Time Around
TTITLE5=I Always Get Lucky With You
TTITLE6=Loving You Could Never Be Better
TTITLE7=Once You've Had The Best
TTITLE8=We Can Make It
TTITLE9=You'll Never Grow Old (To Me)
TTITLE10=What My Woman Can't Do
TTITLE11=She Hung The Moon
TTITLE12=You Oughta Be Here With Me
TTITLE13=Hopelessly Yours
TTITLE14=He Stopped Loving Her Today
EXTD=
EXTT0=
EXTT1=
EXTT2=
EXTT3=
EXTT4=
EXTT5=
EXTT6=
EXTT7=
EXTT8=
EXTT9=
EXTT10=
EXTT11=
EXTT12=
EXTT13=
EXTT14=
PLAYORDER=
